<svg viewBox="0 0 400 400" xmlns="http://www.w3.org/2000/svg" role="img" aria-label="Schema Markup Generator">
  <rect width="400" height="400" fill="#141414"/>

  <!-- code brackets -->
  <g stroke="#3A3A3A" stroke-width="3.5" fill="none" stroke-linecap="round" stroke-linejoin="round">
    <path d="M126 132 L92 200 L126 268"/>
    <path d="M274 132 L308 200 L274 268"/>
  </g>

  <!-- structured data rows -->
  <g>
    <rect x="146" y="140" width="108" height="12" rx="6" fill="#2B2B2B"/>
    <rect x="146" y="140" width="46"  height="12" rx="6" fill="#FDE68A" opacity=".85"/>

    <rect x="158" y="168" width="86" height="12" rx="6" fill="#2B2B2B"/>
    <rect x="158" y="168" width="34" height="12" rx="6" fill="#575757"/>

    <rect x="158" y="196" width="96" height="12" rx="6" fill="#2B2B2B"/>
    <rect x="158" y="196" width="52" height="12" rx="6" fill="#575757"/>

    <rect x="158" y="224" width="74" height="12" rx="6" fill="#2B2B2B"/>
    <rect x="158" y="224" width="28" height="12" rx="6" fill="#FDE68A" opacity=".6"/>

    <rect x="146" y="252" width="108" height="12" rx="6" fill="#2B2B2B"/>
    <rect x="146" y="252" width="40"  height="12" rx="6" fill="#575757"/>
  </g>

  <!-- entity node: AI now understands it -->
  <circle cx="200" cy="312" r="26" fill="#0D0D0D" stroke="#FFFFFF" stroke-width="2"/>
  <g fill="#FFFFFF">
    <circle cx="200" cy="312" r="4.2"/>
    <circle cx="200" cy="298" r="2.8"/>
    <circle cx="212" cy="319" r="2.8"/>
    <circle cx="188" cy="319" r="2.8"/>
  </g>
  <g stroke="#FFFFFF" stroke-width="1.3" opacity=".65">
    <path d="M200 308 L200 300"/>
    <path d="M203 314 L210 318"/>
    <path d="M197 314 L190 318"/>
  </g>
</svg>
